<?xml version="1.0" encoding="utf-8"?>
<!-- Generator: Adobe Illustrator 19.1.0, SVG Export Plug-In . SVG Version: 6.00 Build 0)  -->
<svg version="1.1" id="Layer_1" xmlns="http://www.w3.org/2000/svg" xmlns:xlink="http://www.w3.org/1999/xlink" x="0px" y="0px"
	 width="1000px" height="1000px" viewBox="0 0 1000 1000" style="enable-background:new 0 0 1000 1000;" xml:space="preserve">
<g>
	<g>
		<g>
			<path d="M32.1,122.2c106.7-0.2,213.3-0.1,320,0c28.3-1.3,53.2,27.3,47,55.1c-3.9,13.1-7.3,27.8,0.1,40.4
				c10.2,21.1,40.3,27.9,58.7,13.6c10.5-7,15.1-19.3,17.1-31.2c1.3,27.8,0.4,55.7,0.5,83.6c-7.8-11.8-18.9-21.7-33-25
				c-22.2-7.4-46.5-0.3-68.3-9.3c-20.2-7.8-36-26.3-39.7-47.7c-2-8.9-0.3-18-0.7-26.9c-1-12.3-13.4-21.9-25.6-20.3
				c-64,5.2-128,10.8-192.1,16.2c-14.6,1-30,4.2-44-1.4C52.3,161.1,37.5,142.8,32.1,122.2L32.1,122.2z"/>
			<path d="M96.2,179.5c69.9-6.3,139.9-11.9,209.8-17.9c5.7-1.1,11.1,1.2,16.2,3.5c-4.2,6.4-8.2,13-11.7,19.8
				c-49.4,7-98.9,13.7-148.3,20.7c-10.5,1.4-21.4,3.8-31.9,0.7C115.7,202.7,104.3,191.8,96.2,179.5L96.2,179.5z"/>
			<path d="M312.5,211.1c0.2-14.1,4.9-28.4,14.4-39c0.3,10.5-1.1,21.2,0.9,31.6c4.1,22.5,20.3,42.1,41.3,51.1
				c26,12.2,56.9,1.1,82.5,14.9c14.9,7.5,21.5,24.2,23.3,39.8c-8.6-13.3-21-25.7-37.5-27.6c-22.8-1.6-45.7,0.7-68.5-1.1
				C336.2,276,311.5,243.7,312.5,211.1L312.5,211.1z"/>
			<path d="M152.3,214.3c51.8-8,103.8-14.6,155.7-22c-1.7,8.1-2.5,16.4-2.8,24.7c-33.7,6.7-67.3,14.4-101,21
				C183.8,241.8,163.1,231.5,152.3,214.3L152.3,214.3z"/>
			<path d="M209,244.5c32.2-7.5,64.7-13.7,97-20.8c2,7.9,4.4,15.7,7.5,23.3c-18,5.6-36,11.2-54.1,16.4
				C240.5,268.2,221.2,258.6,209,244.5L209,244.5z"/>
			<path d="M261.7,270.4c18.2-6.3,36.8-11.4,55.3-17c5.8,8.2,12.6,15.6,20.4,22c-10.5,4.4-20.6,10.5-32,12.5
				C289.2,288.8,272.9,282,261.7,270.4L261.7,270.4z"/>
			<path d="M315.5,293c9.5-4.8,19.3-8.9,29.1-13.1c21,11.8,45.5,8.2,68.5,8.6c13.4,0.1,28.3-1.8,39.8,6.8
				c16.7,11.3,21.5,32.8,23.3,51.6c-4.8-12.7-14-23.8-26.9-28.6c-32.3-13.5-68-5.3-101.8-8.9C335.3,307.7,324.7,300.8,315.5,293
				L315.5,293z"/>
		</g>
		<g>
			<path d="M631.6,122.9c10.7-1.5,21.5-0.2,32.2-0.2c98.9,1.8,197.8,3.8,296.7,6c-5.2,19.6-20.8,35.8-40.3,41.6
				c-13.7,4.1-28.2,1.6-42.2,0.6c-63.3-5.5-126.7-10.7-190-16.2c-9.3-1.4-19.6,1.2-25.1,9.3c-6.4,7.8-3.8,18.4-4.1,27.5
				c0.4,25-16.7,48.5-39.8,57.6c-21.1,9.2-44.8,2.5-66.6,9c-15,3.1-27.6,12.8-35.4,25.8c0.2-27,0.1-54,0-81
				c3.7,13.6,11.4,27.4,25.3,32.8c20.8,9.6,47.9-2.8,53.9-25c6.2-15.5-5.5-30.5-3.3-46.1C594.5,144,611.2,125.9,631.6,122.9
				L631.6,122.9z"/>
			<path d="M670,164.8c5.6-2.3,11.6-4.3,17.9-3.2c69.4,6.1,139,11.4,208.4,17.9c-10.6,16.8-29.3,30.3-50.1,28.1
				c-54.6-7.4-109.2-15.3-163.9-22.6C678.5,178.2,674.3,171.5,670,164.8L670,164.8z"/>
			<path d="M665.6,172.1c13.6,15.7,17.7,38.4,12,58.1c-6.7,25.4-28.4,47.3-55,50.8c-22.8,1.6-45.7-0.8-68.5,1.1
				c-16.2,2-27.6,14.6-36.7,27c2.3-15.2,8.3-31.6,22.8-39c25.4-14.1,56.2-3.2,82.2-14.9c20.7-8.6,37-27.3,41.7-49.3
				C667.1,194.9,665.4,183.4,665.6,172.1L665.6,172.1z"/>
			<path d="M684.7,192.2c51.8,7.6,103.8,14,155.5,22.1c-6.6,9-14.7,17.4-25.4,21.2c-11.9,4.7-25,3.3-37.1,0.5
				c-30.1-6.5-60.3-12.8-90.4-19.1C686.9,208.6,686,200.4,684.7,192.2L684.7,192.2z"/>
			<path d="M686.5,223.8c32.3,6.9,64.7,13.4,96.9,20.6c-12.1,14.3-31.5,23.8-50.3,19.1c-18.1-5.3-36.1-10.9-54.1-16.4
				C682,239.5,684.5,231.7,686.5,223.8L686.5,223.8z"/>
			<path d="M655.2,275.2c7.8-6.3,14.6-13.7,20.4-21.9c18.4,5.7,37,10.8,55.2,17c-11.5,11.9-28.3,19-44.9,17.3
				C675,285.4,665.2,279.7,655.2,275.2L655.2,275.2z"/>
			<path d="M647.8,280c9.7,4.1,19.4,8.2,29,12.7c-8.7,8.1-19.2,14.8-31.2,16.6c-34.7,3.9-71.7-5-104.6,10.1
				c-12.1,5-20.3,15.9-24.1,28.1c0.8-14.6,3.5-29.7,12.3-41.8c6.9-9.5,17.7-16.6,29.7-17c19.6-0.7,39.2,0.3,58.8-0.3
				C628.1,288.1,638.3,284.5,647.8,280L647.8,280z"/>
		</g>
	</g>
	<path d="M543.8,592.4c-12.3,5.6-21,8.3-34.2,13.3c0.2,0.4,0.4,0.8,0.6,1.2c0.1,0.3,0.3,0.6,0.4,0.9c0.1,0.2,0.2,0.3,0.2,0.5
		c8.9,4.8,16.5,9.8,23.1,17.7c8.9,10.6,12.3,26.1,6.7,39c-7.1,16.6-22.5,27.8-38.5,35c-18.8,9-39.6,17.9-51.1,36.4
		c-12.3,17.8-13.7,42.2-4,61.5c6.1,13.6,17.9,25.8,33.3,27.5c-5.3-8.4-13.7-14.6-17.6-24c-7.8-17-7.9-38.8,4.8-53.5
		c13.2-16.5,35.2-20.3,53.2-29.2c25-11.5,48.3-33.6,51.1-62.2C575.2,631.8,562.7,607.7,543.8,592.4L543.8,592.4z"/>
	<path d="M598.4,504.2c-1.5-23.6-15.5-45-34.2-58.8c-17,5.3-52.3,13.9-52.3,13.9c14.5,5.8,30.4,12,41.1,23.8
		c13.9,14.6,15.2,40.1,1.1,55.1c-14.4,15.9-35.1,24-55,30.7c-22.7,7.9-45.9,18.5-61.4,37.6c-16.2,19.6-20.2,48.7-9,71.7
		C436.4,694,450.1,706,465,715c8.4-5.7,10.7-7,19.2-13c-0.3-0.6-0.6-1.2-0.9-1.8c-0.2-0.4-0.4-0.7-0.5-1.1c-0.1-0.2-0.2-0.5-0.3-0.7
		c-14-8-23.9-19.4-29.3-35.2c-5.1-14.6,0.7-31.3,12.1-41.2c13.9-12.3,31.9-18.2,49.2-23.7c22.4-6.9,44.5-17,61.8-33.3
		C592.3,549.4,600.8,526.4,598.4,504.2L598.4,504.2z"/>
	<path d="M658.8,343.7c-10.1-12.9-26.4-18.5-41.9-21.8c-20.4-3.4-41.8-3.6-61.8,1.9c-12.6,3.2-27.5,15.5-25.7,26.7
		c0.1,0.8,0.2,1.5,0.4,2.1c1.1,6.3,5,11.9,10.7,14.9c1.8,1,3.8,1.6,5.5,1.5c19.1,0.5,39.3-4.1,53.6-17.6c11.1-10.6,33-6.9,38.5,7.9
		c3.6,10-5.2,18.1-13,22.6c-19.2,11.3-41,17.3-62.2,23.4c-29,8.2-58.5,13.9-87.5,22c-25.8,8-52.3,20.8-67.2,44.3
		c-14.2,21.2-17.1,49.6-6.6,73c8.3,20,26.1,34.4,45.1,43.6c4.6-1.5,8.5-4.5,12.7-6.8c7.6-4.6,15.7-8.2,24-11.4
		c-0.2-0.4-0.4-0.8-0.6-1.1s-0.4-0.6-0.6-1c-16.6-6.9-34-14.9-45.1-29.8c-6.6-8.7-8.1-20.2-6.2-30.7c1.8-14.9,13.4-26.1,25.7-33.4
		c21.2-13,46.2-16.5,69.8-22.6c30.7-7.7,61.5-15.8,90.5-28.9c15.8-7.4,32-16.3,42-31.1C668.7,377.4,669,357.3,658.8,343.7
		L658.8,343.7z M558.8,335.2c6.5-3.4,15-6.9,21.5-1.2C574.5,339.8,565.1,340.7,558.8,335.2z"/>
	<path d="M530.5,718.7c-7.5,3.4-15.1,6.5-22.7,9.6c0.1,0.2,0.2,0.4,0.4,0.6c0.3,0.5,0.5,1,0.8,1.5c9,5.6,17.6,12.7,22.3,22.4
		c7.5,14.2,5.6,31.5-0.9,45.7c-4.1,9-11.9,15.3-17.6,23.2c20.9-1.8,33.7-22.1,38.4-40.7C557.1,758.3,547.2,734.4,530.5,718.7
		L530.5,718.7z"/>
	<path d="M508.6,607.4c-0.2-0.4-0.3-0.7-0.5-1.1c-8.4,2.8-16.7,5.8-24.7,9.7c0.4,27.3,0.3,54.6,0.6,81.9c0.1,0.2,0.1,0.4,0.2,0.6
		c0.2,0.4,0.3,0.7,0.5,1.1c0.3,0.7,0.7,1.3,1,1.9c8.4-4.1,14.9-7.2,22.3-10.8c0.7-27.3,0.8-54.6,1.1-81.9l0,0
		c-0.1-0.2-0.2-0.4-0.3-0.6C508.9,607.9,508.7,607.6,508.6,607.4L508.6,607.4z"/>
	<path d="M485.7,466.2c-4.7,0.6-2.8,6.1-3.3,9.3c0.4,30,0.4,59.9,0.7,89.9c0.2,0.3,0.4,0.6,0.5,1c0.2,0.4,0.7,1.8,0.9,2.2
		c8.4-3.3,16.7-6.2,25.2-9.2c0.2-32.8,0.3-66.5,0.5-99.3l0,0c-0.1-0.1-0.1-0.2-0.2-0.3C501.9,461.8,493.8,463.9,485.7,466.2
		L485.7,466.2z"/>
	<path d="M507,729.7c-0.1-0.2-0.3-0.4-0.4-0.6c-7.3,3-14.6,6.1-21.8,9.6c1.1,54.7,1.5,109.4,5,163.9c1,11.5,1.2,23.5,6,34.2
		c2.6-4.6,4.6-9.5,5-14.8c2.5-19.4,2.8-38.9,4-58.3c1.1-44.1,2.8-88.2,3-132.4C507.5,730.7,507.3,730.2,507,729.7L507,729.7z"/>
	<g>
		<path d="M457.6,171.3c19.7-2.6,39.9-0.3,59.8-1.1c7.2,0.6,16.7-2.1,21.6,4.8c5.4,6.5-1,17.2-9.2,16.2c-22.9,0.1-45.8,0.3-68.7-0.1
			C450.6,191.3,447.8,174.8,457.6,171.3L457.6,171.3z"/>
		<path d="M482,198.3c9.5,0,19.1,0,28.7,0c0,72.3-0.2,144.6-0.3,216.9c-9.3,2.4-18.6,4.6-27.9,6.8C482,347.5,481.9,272.9,482,198.3
			L482,198.3z"/>
		<circle cx="496.3" cy="121.1" r="45.7"/>
	</g>
	<path d="M376.8,392.2c-8.6-4-17.6-8.2-23.9-15.5c-4.3-5-4.3-12.6-1-18.1c5.1-7.4,14.7-10.7,23.4-10c7.3,0.5,12.9,5.7,18.4,10
		c13.2,10.8,30.9,13.4,47.4,13.7c1.9,0.2,3.9-0.5,5.9-1.5c5.5-2.8,9.4-8.1,10.8-14.1c0.5-2.2,0.6-4.4,0.2-6.6
		c-0.7-3.8-2.1-9.6-5.1-12.1c-11.3-11.2-28.2-13.7-43.4-14.9c-24.7-1.4-51.3,1.1-72.1,15.9l0,0c-15.1,10.7-19.7,32.4-12,48.9
		c6.5,13.8,19,23.7,32.1,30.9c21.5,11.8,44.9,19.7,68.5,26.2c15.7-10.7,36.7-17.5,54.8-23C444,413.2,409.2,406.2,376.8,392.2z
		 M428,338.5c-6.3,5.5-15.7,4.6-21.5-1.2C412.9,331.6,421.5,335.1,428,338.5z"/>
</g>
</svg>
